<mxfile host="app.diagrams.net" agent="Mozilla/5.0 (Macintosh; Intel Mac OS X 10_15_7) AppleWebKit/537.36 (KHTML, like Gecko) Chrome/129.0.0.0 Safari/537.36" version="24.7.16">
  <diagram id="C5RBs43oDa-KdzZeNtuy" name="Page-1">
    <mxGraphModel dx="2140" dy="1033" grid="1" gridSize="10" guides="1" tooltips="1" connect="1" arrows="1" fold="1" page="1" pageScale="1" pageWidth="583" pageHeight="827" math="0" shadow="0">
      <root>
        <mxCell id="WIyWlLk6GJQsqaUBKTNV-0" />
        <mxCell id="WIyWlLk6GJQsqaUBKTNV-1" parent="WIyWlLk6GJQsqaUBKTNV-0" />
        <mxCell id="n0Mzj0aUWCgbgEP6CZ07-0" value="" style="group" vertex="1" connectable="0" parent="WIyWlLk6GJQsqaUBKTNV-1">
          <mxGeometry x="-310" y="380" width="703" height="120" as="geometry" />
        </mxCell>
        <mxCell id="Oq9K4UGTVlwQFqxmLdg6-4" value="Llenado" style="swimlane;fontStyle=0;childLayout=stackLayout;horizontal=1;startSize=30;horizontalStack=0;resizeParent=1;resizeParentMax=0;resizeLast=0;collapsible=1;marginBottom=0;whiteSpace=wrap;html=1;" parent="n0Mzj0aUWCgbgEP6CZ07-0" vertex="1">
          <mxGeometry y="20" width="140" height="90" as="geometry" />
        </mxCell>
        <mxCell id="Oq9K4UGTVlwQFqxmLdg6-5" value="- Llenado de tambor con agua" style="text;strokeColor=none;fillColor=none;align=left;verticalAlign=middle;spacingLeft=4;spacingRight=4;overflow=hidden;points=[[0,0.5],[1,0.5]];portConstraint=eastwest;rotatable=0;whiteSpace=wrap;html=1;" parent="Oq9K4UGTVlwQFqxmLdg6-4" vertex="1">
          <mxGeometry y="30" width="140" height="30" as="geometry" />
        </mxCell>
        <mxCell id="Oq9K4UGTVlwQFqxmLdg6-6" value="Tiempo: 5 min" style="text;strokeColor=none;fillColor=none;align=left;verticalAlign=middle;spacingLeft=4;spacingRight=4;overflow=hidden;points=[[0,0.5],[1,0.5]];portConstraint=eastwest;rotatable=0;whiteSpace=wrap;html=1;" parent="Oq9K4UGTVlwQFqxmLdg6-4" vertex="1">
          <mxGeometry y="60" width="140" height="30" as="geometry" />
        </mxCell>
        <mxCell id="Oq9K4UGTVlwQFqxmLdg6-25" style="edgeStyle=orthogonalEdgeStyle;rounded=0;orthogonalLoop=1;jettySize=auto;html=1;exitX=1;exitY=0.5;exitDx=0;exitDy=0;entryX=0;entryY=0.5;entryDx=0;entryDy=0;" parent="n0Mzj0aUWCgbgEP6CZ07-0" source="Oq9K4UGTVlwQFqxmLdg6-8" target="Oq9K4UGTVlwQFqxmLdg6-13" edge="1">
          <mxGeometry relative="1" as="geometry" />
        </mxCell>
        <mxCell id="Oq9K4UGTVlwQFqxmLdg6-8" value="Lavado" style="swimlane;fontStyle=0;childLayout=stackLayout;horizontal=1;startSize=30;horizontalStack=0;resizeParent=1;resizeParentMax=0;resizeLast=0;collapsible=1;marginBottom=0;whiteSpace=wrap;html=1;" parent="n0Mzj0aUWCgbgEP6CZ07-0" vertex="1">
          <mxGeometry x="200" width="140" height="120" as="geometry" />
        </mxCell>
        <mxCell id="Oq9K4UGTVlwQFqxmLdg6-9" value="- Giros leves para mezclar agua y jabÃ³n" style="text;strokeColor=none;fillColor=none;align=left;verticalAlign=middle;spacingLeft=4;spacingRight=4;overflow=hidden;points=[[0,0.5],[1,0.5]];portConstraint=eastwest;rotatable=0;whiteSpace=wrap;html=1;" parent="Oq9K4UGTVlwQFqxmLdg6-8" vertex="1">
          <mxGeometry y="30" width="140" height="30" as="geometry" />
        </mxCell>
        <mxCell id="Oq9K4UGTVlwQFqxmLdg6-10" value="- rpm : 40 rpm&amp;nbsp;" style="text;strokeColor=none;fillColor=none;align=left;verticalAlign=middle;spacingLeft=4;spacingRight=4;overflow=hidden;points=[[0,0.5],[1,0.5]];portConstraint=eastwest;rotatable=0;whiteSpace=wrap;html=1;" parent="Oq9K4UGTVlwQFqxmLdg6-8" vertex="1">
          <mxGeometry y="60" width="140" height="30" as="geometry" />
        </mxCell>
        <mxCell id="Oq9K4UGTVlwQFqxmLdg6-11" value="Tiempo: 5 min" style="text;strokeColor=none;fillColor=none;align=left;verticalAlign=middle;spacingLeft=4;spacingRight=4;overflow=hidden;points=[[0,0.5],[1,0.5]];portConstraint=eastwest;rotatable=0;whiteSpace=wrap;html=1;" parent="Oq9K4UGTVlwQFqxmLdg6-8" vertex="1">
          <mxGeometry y="90" width="140" height="30" as="geometry" />
        </mxCell>
        <mxCell id="Oq9K4UGTVlwQFqxmLdg6-12" value="Enjuague" style="swimlane;fontStyle=0;childLayout=stackLayout;horizontal=1;startSize=30;horizontalStack=0;resizeParent=1;resizeParentMax=0;resizeLast=0;collapsible=1;marginBottom=0;whiteSpace=wrap;html=1;" parent="n0Mzj0aUWCgbgEP6CZ07-0" vertex="1">
          <mxGeometry x="390" y="5" width="140" height="110" as="geometry" />
        </mxCell>
        <mxCell id="Oq9K4UGTVlwQFqxmLdg6-27" style="edgeStyle=orthogonalEdgeStyle;rounded=0;orthogonalLoop=1;jettySize=auto;html=1;exitX=1;exitY=0.5;exitDx=0;exitDy=0;" parent="Oq9K4UGTVlwQFqxmLdg6-12" source="Oq9K4UGTVlwQFqxmLdg6-13" edge="1">
          <mxGeometry relative="1" as="geometry">
            <mxPoint x="170" y="55" as="targetPoint" />
          </mxGeometry>
        </mxCell>
        <mxCell id="Oq9K4UGTVlwQFqxmLdg6-13" value="- Drenado de agua sucia y cambio por agua limpia" style="text;strokeColor=none;fillColor=none;align=left;verticalAlign=middle;spacingLeft=4;spacingRight=4;overflow=hidden;points=[[0,0.5],[1,0.5]];portConstraint=eastwest;rotatable=0;whiteSpace=wrap;html=1;" parent="Oq9K4UGTVlwQFqxmLdg6-12" vertex="1">
          <mxGeometry y="30" width="140" height="50" as="geometry" />
        </mxCell>
        <mxCell id="Oq9K4UGTVlwQFqxmLdg6-15" value="Tiempo: 5 min" style="text;strokeColor=none;fillColor=none;align=left;verticalAlign=middle;spacingLeft=4;spacingRight=4;overflow=hidden;points=[[0,0.5],[1,0.5]];portConstraint=eastwest;rotatable=0;whiteSpace=wrap;html=1;" parent="Oq9K4UGTVlwQFqxmLdg6-12" vertex="1">
          <mxGeometry y="80" width="140" height="30" as="geometry" />
        </mxCell>
        <mxCell id="Oq9K4UGTVlwQFqxmLdg6-17" value="Centrifugado" style="swimlane;fontStyle=0;childLayout=stackLayout;horizontal=1;startSize=30;horizontalStack=0;resizeParent=1;resizeParentMax=0;resizeLast=0;collapsible=1;marginBottom=0;whiteSpace=wrap;html=1;" parent="n0Mzj0aUWCgbgEP6CZ07-0" vertex="1">
          <mxGeometry x="563" y="15" width="140" height="90" as="geometry" />
        </mxCell>
        <mxCell id="Oq9K4UGTVlwQFqxmLdg6-18" value="- Giros a alta velocidad para secar la ropa" style="text;strokeColor=none;fillColor=none;align=left;verticalAlign=middle;spacingLeft=4;spacingRight=4;overflow=hidden;points=[[0,0.5],[1,0.5]];portConstraint=eastwest;rotatable=0;whiteSpace=wrap;html=1;" parent="Oq9K4UGTVlwQFqxmLdg6-17" vertex="1">
          <mxGeometry y="30" width="140" height="30" as="geometry" />
        </mxCell>
        <mxCell id="Oq9K4UGTVlwQFqxmLdg6-19" value="Tiempo: 40 min" style="text;strokeColor=none;fillColor=none;align=left;verticalAlign=middle;spacingLeft=4;spacingRight=4;overflow=hidden;points=[[0,0.5],[1,0.5]];portConstraint=eastwest;rotatable=0;whiteSpace=wrap;html=1;" parent="Oq9K4UGTVlwQFqxmLdg6-17" vertex="1">
          <mxGeometry y="60" width="140" height="30" as="geometry" />
        </mxCell>
        <mxCell id="Oq9K4UGTVlwQFqxmLdg6-24" style="edgeStyle=orthogonalEdgeStyle;rounded=0;orthogonalLoop=1;jettySize=auto;html=1;exitX=1;exitY=0.5;exitDx=0;exitDy=0;entryX=-0.021;entryY=0.159;entryDx=0;entryDy=0;entryPerimeter=0;" parent="n0Mzj0aUWCgbgEP6CZ07-0" source="Oq9K4UGTVlwQFqxmLdg6-5" target="Oq9K4UGTVlwQFqxmLdg6-10" edge="1">
          <mxGeometry relative="1" as="geometry" />
        </mxCell>
      </root>
    </mxGraphModel>
  </diagram>
</mxfile>
